<svg fill="none" height="180" viewBox="0 0 475 180" width="475" xmlns="http://www.w3.org/2000/svg"><path d="m211.917.78737c-4.178.45165-12.167 2.42761-16.965 4.2342-6.182 2.28646-14.284 6.74653-19.816 10.89603-6.465 4.8552-13.663 12.8437-18.264 20.2959-3.585 5.8149-5.871 10.896-9.88 21.9614-1.411 3.9801-3.189 8.6377-3.923 10.3596-4.122 9.7951-10.388 16.6263-18.264 19.8725-6.549 2.7381-13.578 2.5405-24.728-.6775-4.7419-1.3549-8.468-2.8792-20.5496-8.3554-17.1344-7.791-24.7277-10.7267-31.4742-12.1663-4.0931-.8751-11.2065-1.0727-14.9608-.4234-7.5369 1.3267-14.2834 4.7705-19.3644 9.908-9.56933 9.7104-14.480996 25.6876-13.6341563 44.4586.6210153 13.437 5.5891363 34.834 11.9968563 51.742.988 2.597 1.8066 4.856 1.8066 4.997 0 .169-.2823.282-.621.282-.8468 0-1.4678.423-1.242.819.1129.169.7057.423 1.3267.592.988.283 1.242.254 1.6937-.169.875-.79.6492-2.286-1.1574-7.452-6.91583-19.986-11.51699-43.895-10.89597-56.738.33873-7.057 1.7219-14.623 3.61318-20.0423 1.24203-3.5002 3.89549-8.5531 5.98429-11.3194 2.0889-2.7663 5.0246-5.6174 7.5087-7.311 2.6252-1.7784 7.2263-3.8673 10.3597-4.7141 2.4558-.6775 3.3026-.7622 7.7062-.7622 4.206-.0282 5.3915.0847 7.9038.621 7.7909 1.7502 14.5374 4.4883 34.1559 13.8318 12.505 5.9278 18.7716 8.3272 25.9419 9.9362 15.779 3.5003 29.018-1.7219 37.571-14.8197 2.766-4.2624 4.94-9.2023 9.202-20.9451 4.15-11.4324 6.86-16.7392 12.364-24.0785 3.416-4.6012 9.598-10.896 13.578-13.8599 13.182-9.8234 29.301-15.38429 40.987-14.14226 9.626 1.01621 17.473 5.84316 27.607 17.02146 12.533 13.8317 19.647 20.5782 29.301 27.8046 8.073 6.0408 14.029 9.1458 21.227 11.0653 2.569.6775 3.274.7622 8.045.7622 4.545-.0282 5.533-.0847 7.565-.6492 6.605-1.8066 11.602-4.827 24.756-15.0173 3.416-2.6535 7.537-5.7585 9.174-6.8877 8.44-5.9278 16.09-9.6822 23.486-11.4605 8.016-1.9477 12.42-1.9195 20.409.1411 19.11 4.8835 38.333 19.8443 61.791 47.9876 2.71 3.2462 4.911 5.9561 4.883 5.9843s-1.073-.0847-2.315-.1976c-8.355-.9033-24.135-1.1573-38.107-.5928-5.533.2259-7.199.3952-9.033.9033-3.416.9315-3.981 1.6655-2.936 3.7543.734 1.4961 2.456 2.8228 4.686 3.585 1.524.5363 1.835.5646 8.242.2258 3.67-.1976 11.037-.3669 16.401-.3669 13.832 0 22.413.6774 30.797 2.3711 4.827.988 5.363 1.0162 6.012.3105.734-.8186 2.117-4.2906 2.145-5.3351 0-.5363-1.411-5.0528-3.133-10.0209-9.118-26.3932-10.783-31.8412-13.239-43.9227-2.004-9.7669-3.048-14.481-4.545-20.6347-1.129-4.62938-1.129-4.68583-2.117-5.22216-.875-.47988-1.185-.50811-2.568-.1976-1.976.39519-2.343.73393-2.343 2.00416 0 1.0727 2.23 11.884 4.234 20.4935 1.919 8.2708 5.9 29.8935 7.452 40.3378.169 1.3267.536 1.6372-3.782-3.3591-19.901-22.9776-38.842-37.7973-55.751-43.6122-10.557-3.6132-17.416-4.1213-27.155-1.976-5.363 1.1574-10.077 2.8228-14.904 5.2222-6.832 3.3873-11.828 6.69-22.301 14.8197-10.811 8.3837-16.202 11.8557-20.804 13.4083-3.105 1.0444-8.496 1.2984-12.109.5645-3.585-.7057-8.045-2.23-11.037-3.7543-9.852-5.0246-23.289-16.4851-35.991-30.6838-9.795-10.9242-16.118-16.08996-23.796-19.36441-4.037-1.7219-6.944-2.286464-12.28-2.371148-2.625-.056456-5.306-.028228-5.927.028228zm253.713 83.30073c.451 1.4961.451 1.4961-.17 1.4961-1.27 0-1.439-.367-.903-1.8066.282-.7339.536-1.2702.565-1.242.056.0564.282.7621.508 1.5525z" fill="#000"/></svg>