<svg fill="none" height="714" viewBox="0 0 678 714" width="678" xmlns="http://www.w3.org/2000/svg"><path d="m154.547.66449c-3.627.131897-18.334.52759-32.645.92328-31.1946.85736-37.262 1.58282-40.2297 4.81433-1.9126 1.97852-7.98 14.1793-10.618 21.104-2.1104 5.7377-2.1763 5.7377-4.1548 5.4079-1.1212-.1978-5.7377-.7914-10.2882-1.319s-10.486-1.4509-13.19-1.9785c-11.5412-2.2423-20.3785-2.572-26.0502-.9892-1.0552.3297-3.2316.9232-4.7484 1.319-2.1104.5276-3.09968 1.253-3.82513 2.638-1.78065 3.4294-3.23155 30.5348-4.28675 80.1297-2.17635 101.431-2.70395 129.987-3.2975 173.448-1.055201 70.962-1.1211508 190.002-.1319 218.294.3957 13.058 1.12115 33.107 1.4509 44.517.3957 11.409.98925 26.577 1.319 33.634.5276 10.618.46165 14.047-.3957 19.719-1.1871 7.914-.7914 10.618 2.44015 16.488 1.51685 2.835 1.91255 4.418 1.91255 7.584 0 4.946 1.0552 19.455 2.30828 31.392.9233 8.837.9233 8.969 4.7484 16.422 3.2975 6.529 4.4186 7.98 8.2437 11.343 6.1993 5.342 9.5628 6.265 29.8754 8.178 31.4581 2.902 120.2269 6.397 209.7209 8.243 35.415.726 64.829 1.649 87.054 2.638 7.65.33 32.975 1.517 56.387 2.638 70.039 3.232 80.393 3.562 154.323 5.276 44.846 1.056 49.001.99 51.441-.395 2.242-1.385 4.089-3.957 7.057-10.157 5.078-10.486 7.188-19.059 8.112-33.172.989-14.773 1.978-76.304 1.978-125.173 0-41.813 0-42.076 1.979-61.993 3.231-32.58 5.342-49.265 14.113-114.028 5.408-39.9 8.507-64.763 12.596-100.574 4.089-36.338 5.54-47.879 10.289-81.448 7.188-51.639 9.826-75.183 8.903-81.58-.66-4.6824-3.496-9.101-9.959-15.2344-7.518-7.1885-14.443-11.805-27.039-18.1362-20.642-10.2882-38.053-15.3004-90.352-26.1162-62.586-12.8603-129.987-24.6653-177.273-30.9965-39.504-5.3419-88.901-9.8925-128.075-11.93693-13.058-.659486-77.03-1.318971-89.692-.92328zm44.846 28.62221c42.933 1.5169 83.888 4.7485 129.592 10.2883 26.578 3.1655 52.628 6.9907 40.229 5.8695-20.312-1.8466-59.091-4.5505-84.746-5.9355-34.096-1.7147-58.233-2.3742-120.688-3.0337-60.938-.6595-69.5772-.9233-69.5772-1.9126 0-.2637.6595-1.9125 1.3849-3.6272l1.385-3.1656 42.0103.4617c23.082.1978 50.254.7254 60.41 1.0551zm-157.0928 29.9413c3.6932.8574 9.1011 1.9785 12.0029 2.3742 2.9017.4617 5.5397 1.0553 5.8035 1.3191s-.5276 5.9355-1.7806 12.5964c-2.9018 15.1685-6.2652 38.4493-12.5964 87.3173-8.9692 68.918-11.937 93.188-15.7621 129.262l-.9233 8.574-.0659-15.498c0-8.508.2638-31.261.5935-50.452.3957-19.257 1.1212-61.795 1.6488-94.638s1.1871-64.8291 1.4509-71.0944c.4616-13.19-.5936-12.1347 9.6287-9.7606zm66.4118 7.6502c4.55.3957 32.645 1.0553 62.454 1.6488 29.876.5276 61.004 1.253 69.248 1.6487 83.361 3.7592 148.651 9.6287 219.152 19.851 73.534 10.6183 109.543 16.8173 126.03 21.6973l4.353 1.319.461 72.347c.528 85.076 1.385 147.201 2.704 198.378.528 20.312 1.187 49.858 1.385 65.62l.396 28.688-2.374 28.029c-1.319 15.432-3.693 45.506-5.342 66.939-2.902 37.856-4.485 55.53-5.54 60.345l-.462 2.308-23.346-.066c-39.438-.132-85.471-3.1-178.065-11.475-48.011-4.353-69.775-6.068-95.627-7.585-9.629-.527-19.521-1.121-22.094-1.253-2.506-.198-44.648-.593-93.649-.989-96.1546-.725-118.1159-1.319-130.2507-3.759l-1.7147-.33 1.5169-19.587c.7914-10.75 2.5061-31.788 3.7591-46.627 3.4294-39.899 4.1549-52.628 6.0015-99.584 3.3634-87.582 7.2545-141.265 15.1684-208.402 12.4646-105.982 19.851-161.9732 22.489-169.7553.3297-.9892 3.5613-.8573 23.3465.5935zm519.883 35.3488c5.013 2.572 13.256 7.651 13.85 8.64.132.264-.396 4.353-1.319 9.101-1.781 9.827-14.707 99.255-14.707 102.091 0 1.055-.264 1.714-.659 1.45-.396-.263-.66-9.562-.66-25.588-.066-30.403-1.121-91.341-1.715-95.232-.197-1.583-.197-2.8358 0-2.8358.264 0 2.572 1.0548 5.21 2.3738zm-571.9837 541.977c23.4782 1.979 61.2017 3.298 128.6027 4.353 72.809 1.187 100.31 2.902 184.989 11.541 96.947 9.959 150.762 13.916 198.708 14.641 14.838.198 24.995.66 24.665.989-.923.924-89.23-1.187-180.505-4.418-73.27-2.572-88.109-2.902-151.026-3.627-60.344-.66-84.547-1.188-135.197-2.968-40.3614-1.451-67.5327-2.836-77.1614-4.023l-3.2975-.396-2.8359-8.376c-1.5168-4.55-2.7699-8.573-2.7699-8.903 0-.264.9893-.395 2.1764-.132 1.1211.198 7.3204.792 13.6516 1.319z" fill="#bef264"/></svg>