<svg fill="none" height="419" viewBox="0 0 491 419" width="491" xmlns="http://www.w3.org/2000/svg"><path d="m396.184 2.13885c-24.995 6.92475-43.329 10.74985-57.376 12.00295-12.86 1.1871-109.609-.2638-159.929-2.3743-80.2609-3.42933-146.7385-5.4738-150.8933-4.68239-1.7807.32975-2.638.92331-3.0997 2.11042-.5276 1.38497-1.0552 1.58277-3.957 1.58277-2.5061 0-3.2975-.2638-3.2975-.98924 0-1.319-3.0337-1.319-3.5613.06595-.1978.59349-.3957 5.67169-.3957 11.34339 0 10.8158-.6595 24.5994-3.95695 80.2616-7.7821 133.548-10.420096 200.619-9.562747 245.993.72545 40.229 1.582797 47.022 7.650197 59.157 3.891 7.848 6.4631 10.816 10.0903 11.805 2.8359.792 5.1441.528 18.8617-1.846 6.9907-1.254 12.3986-1.715 20.1148-1.847 6.595-.132 18.466-1.055 31.656-2.506 14.7072-1.649 33.1732-3.1 61.0032-4.683 35.35-2.044 45.902-2.44 92.33-3.033 112.841-1.451 141.595-2.506 197.85-6.991 32.184-2.572 44.121-4.485 48.671-7.914 3.1-2.44 2.573-3.1-.989-1.253-3.759 1.912-10.222 2.638-32.843 3.627-30.139 1.253-43.197 1.517-43.197.858 0-1.188 1.517-1.979 4.616-2.507 13.982-2.176 21.236-6.067 24.6-13.058 2.11-4.418 2.176-5.012 3.759-20.246 4.221-41.153 6.463-68.193 9.233-111.786 5.606-89.362 5.606-109.608 0-154.3225-2.902-22.6208-6.002-36.4044-10.354-45.6374-3.034-6.3311-8.64-9.5627-18.664-10.8158-3.43-.3956-6.397-.8573-6.529-.9232-.132-.132-1.781-6.4631-3.693-14.1133-1.979-7.5843-3.891-14.4431-4.287-15.23448-.923-1.78064-4.485-3.297517-7.387-3.231568-1.187 0-4.088.527618-6.463 1.187098zm9.695 18.20225c1.517 6.529 2.77 12.0688 2.836 12.3326 0 .3297-1.649.5276-3.627.5276-3.232 0-3.628-.1319-3.628-1.385 0-2.1763-1.253-3.957-3.561-4.8802-3.495-1.5169-44.978-5.9356-58.893-6.3312-3.1-.1319-3.1-.1319 1.121-.7255 14.575-1.9785 31.128-4.9462 42.867-7.5842 17.609-3.95703 17.939-4.02298 19.126-3.89109.725.06595 1.715 3.29749 3.759 11.93699zm-384.1586.6594c-.1319.9234-.3957 1.6488-.5276 1.6488s-.2638-.7254-.2638-1.6488c0-.9232.2638-1.6487.5936-1.6487.2638 0 .3957.7255.1978 1.6487zm13.5198 1.319c2.572.5936 5.1441 1.5828 5.6717 2.1764 1.5828 1.8466 1.8466 6.3312 2.4401 48.2754.3298 23.0825 1.319 55.9917 2.2423 76.5017 1.7807 38.053 2.9018 68.588 5.0122 134.538.7255 22.291 1.4509 43.659 1.6488 47.484 1.1211 19.983 3.8251 50.386 5.0122 56.717.8573 4.419 4.0889 10.75 6.595 12.794l1.8466 1.583-2.0445.396c-1.1211.198-3.2315.396-4.7484.396h-2.7699l-2.7039-5.804c-4.8803-10.42-8.8373-24.665-11.0137-39.702-3.0337-20.774-4.0229-38.053-6.9907-121.018-2.4401-67.467-3.891-89.56-10.2222-155.9717-2.1764-22.6868-2.1764-23.6761-1.319-31.9857 1.0552-10.1564 1.9125-15.9599 3.4294-22.9506.8573-4.0889 1.253-5.0782 2.1104-4.8144.5935.1319 3.1656.7914 5.8036 1.3849zm76.4358 1.319c89.099 4.2868 95.232 4.6166 168.766 9.8926 43 3.0996 86.461 5.9355 102.552 6.6609 5.276.2638 10.025.6595 10.618.9892 1.121.5277 1.056.2638 2.572 21.0381 1.781 23.8739 3.232 66.6097 3.364 98.5957.264 43.263-.858 184.593-1.451 185.715-.791 1.582-20.774 17.081-24.665 19.125-6.661 3.627-29.414 10.75-42.868 13.454-16.817 3.363-33.436 5.012-94.308 9.233-18.466 1.319-40.757 2.902-49.463 3.627-8.705.726-23.808 1.913-33.634 2.638-9.761.792-25.391 2.111-34.624 3.034-29.5456 2.902-39.7019 2.77-45.5714-.528-3.1656-1.78-6.2653-6.397-7.1886-10.75-2.2423-11.013-5.3419-50.188-6.9247-87.383-4.2208-100.706-5.2101-122.799-7.5843-165.864-.7254-13.059-1.7806-40.8235-2.3082-61.7296-.9233-36.2725-1.5169-46.0331-2.9678-48.7371-.9892-1.8466-.8573-1.9785 1.5169-1.9785 1.253 0 30.0732 1.319 64.1691 2.9677zm133.681-.5275c-.462.1319-1.385.1319-1.979 0-.659-.1979-.263-.3298.792-.3298 1.121 0 1.583.1319 1.187.3298zm11.541.6594c-1.055.1319-2.638.1319-3.627 0-1.055-.1319-.198-.2637 1.78-.2637 1.979 0 2.836.1318 1.847.2637zm25.325 1.1872c42.735 2.5061 88.439 6.0014 81.976 6.1993-4.023.0659-96.155-6.0015-101.893-6.7929-4.353-.5936 4.682-.3297 19.917.5936zm90.417 6.7268c-.857.1319-2.176.1319-2.967 0-.858-.1318-.198-.2637 1.45-.2637 1.649 0 2.309.1319 1.517.2637zm37.856 10.3542c.065 0 .593 2.7699 1.121 6.0014 2.374 13.8496 3.627 28.1607 6.331 70.896 4.682 76.172 4.682 134.011 0 195.212-2.968 38.053-7.255 65.554-10.486 67.203-1.583.792-14.245 1.913-38.977 3.364-12.134.725-24.731 1.451-28.028 1.648l-5.936.396 7.255-1.978c8.243-2.177 24.203-7.189 30.864-9.695 5.21-1.979 8.64-4.287 21.236-13.915 7.716-5.936 9.497-7.651 10.882-10.421l1.649-3.297.593-53.749c.923-84.746.858-167.052-.132-188.617-.989-22.0935-2.572-47.3523-3.429-55.728-.989-9.167-1.253-8.4416 3.165-7.914 2.045.2639 3.826.5277 3.892.5936zm20.444 2.1104c1.583.5276 3.429 1.7807 4.155 2.7039 3.034 3.8251 6.265 17.9385 8.903 38.9105 4.419 34.9536 5.474 55.5296 4.353 83.5586-3.034 76.172-12.267 196.465-15.564 202.796-1.187 2.374-5.54 5.078-10.75 6.661-2.045.66-3.825 1.121-3.891 1.055-.132-.066.593-3.627 1.451-7.848 2.044-9.496 4.484-28.358 6.265-47.616 5.21-58.167 5.869-120.292 1.978-189.935-2.44-43.3956-4.814-72.2157-7.122-85.4057l-1.187-6.9907 4.286.5276c2.375.2638 5.606.9893 7.123 1.5828zm-408.0984 74.458c1.5828 19.323 3.0996 42.405 4.0229 62.322.6595 14.114 1.0552 28.491 2.9678 95.628 1.9125 68.06 3.957 88.175 11.2115 112.906 1.253 4.287 3.0337 9.365 3.891 11.278l1.5828 3.627-2.4401.33c-1.319.197-7.1886.857-12.9922 1.516-9.1011.924-10.9477.924-12.5305.198l-1.9125-.923-.5276-9.563c-.6595-12.069-.066-146.343.8573-179.384.3957-13.585 1.1212-37.525 1.6488-53.089.5276-15.631 1.1211-35.482 1.319-44.187.3957-14.377.8573-20.8402 1.3849-18.136.1319.527.7914 8.375 1.5169 17.477zm-12.0029 74.985c-.1319.857-.2638.197-.2638-1.451 0-1.649.1319-2.308.2638-1.517.1319.857.1319 2.176 0 2.968zm-.6595 20.444c-.1319 1.913-.19785.528-.19785-3.1 0-3.627.06595-5.21.19785-3.495s.1319 4.683 0 6.595zm-1.0552 50.188c-.3957 23.412-.7914 56.915-.85735 74.458-.06595 24.269-.19785 29.084-.59355 20.312-.6595-17.081-.6595-60.74.06595-84.086.32975-11.277.7914-27.963 1.0552-37.13s.59355-16.487.72545-16.355c.19785.131 0 19.389-.3957 42.801z" fill="#bef264"/></svg>